# xmcd
#
# Track frame offsets:
#	150
#	10905
#	21922
#	40974
#	52426
#	64816
#
# Disc length: 997 seconds
#
# Revision: 1
# Processed by: cddbd v1.5.2PL0 Copyright (c) Steve Scherf et al.
# Submitted via: audiograbber 1.83.01
#
DISCID=5203e306
DTITLE=Los Fletchers - Tiempos de Tormenta
DYEAR=2015
DGENRE=Pop
TTITLE0=Tiempos de Tormenta
TTITLE1=Acúfeno
TTITLE2=Aullidos
TTITLE3=Pobres Diablos
TTITLE4=Mejor ni Hablar
TTITLE5=El amo del Consenso
EXTD=CRG
EXTT0=
EXTT1=
EXTT2=
EXTT3=
EXTT4=
EXTT5=
PLAYORDER=
